<svg xmlns="http://www.w3.org/2000/svg" width="400" height="400"><g fill-rule="evenodd"><path d="M186.368 68.966c-.126.125-2.015.407-4.198.627-3.79.382-6.351.759-10.77 1.584-1.886.352-3.449.713-7.2 1.666a69.3 69.3 0 0 1-2.705.628c-.608.122-1.203.38-1.324.575-.12.195-.647.354-1.171.354s-1.064.18-1.2.4c-.136.22-.676.4-1.2.4-.524 0-1.064.18-1.2.4-.136.22-.599.4-1.029.4a3.88 3.88 0 0 0-1.476.353c-.754.384-1.41.656-5.795 2.406-5.094 2.033-12.526 5.735-19.145 9.536-.795.456-1.875 1.072-2.4 1.367-.525.296-1.045.642-1.155.768-.11.127-1.37 1.012-2.8 1.967-5.155 3.444-10.82 8.601-13.698 12.468-.599.806-1.328 1.706-1.62 2-.924.933-4.53 6.457-5.571 8.535-2.402 4.796-2.441 7.267-.132 8.363 4.64 2.202 9.403.991 23.821-6.058 9.043-4.421 10.817-5.259 14.1-6.663 6.079-2.601 5.864-2.514 7.7-3.097.88-.28 1.771-.652 1.98-.827.209-.175.783-.318 1.276-.318s.995-.159 1.115-.354c.121-.195.716-.45 1.324-.567.608-.117 1.78-.408 2.605-.646 10.25-2.959 21.881-4.507 33.9-4.514 13.193-.007 21.337 1.203 30.8 4.578 8.793 3.136 17.291 9.478 21.844 16.303 3.666 5.494 4.812 8.45 6.592 17 .621 2.982.624 17.426.005 22.2-.84 6.476-2.261 13.364-3.26 15.8-.181.44-.563 1.52-.851 2.4-.288.88-1.02 2.563-1.627 3.741-.606 1.177-1.103 2.392-1.103 2.7 0 .307-.159.559-.353.559-.195 0-.46.315-.589.7-1.837 5.453-11.331 14.521-19.058 18.201-2.898 1.38-8.081 3.099-9.347 3.099-.553 0-1.105.161-1.227.358-.121.197-.897.455-1.723.574-.827.119-2.313.398-3.303.621-2.728.613-5.918 1.22-10.8 2.055-12.075 2.067-14.371 3.521-13.893 8.792.752 8.3 9.66 12.488 28.906 13.589 13.572.777 28.225-1.204 37.287-5.039 3.638-1.54 4.47-1.915 6.5-2.933 3.971-1.991 5.798-3.012 5.933-3.317.074-.165.311-.3.529-.3 1.836 0 14.817-11.131 19.133-16.407.986-1.206 1.897-2.283 2.022-2.393 3.122-2.741 10.647-14.954 14.302-23.211 8.755-19.781 8.225-50.114-1.163-66.544l-1.139-2c-1.606-2.824-2.594-4.456-2.813-4.645-.127-.11-1.121-1.46-2.207-3-2.136-3.026-10.718-11.887-12.997-13.42-.77-.518-1.49-1.055-1.6-1.194C272.405 88.58 258.218 80 257.351 80c-.204 0-5.468-2.365-6.246-2.806-.382-.217-1.046-.394-1.476-.394-.43 0-.893-.18-1.029-.4-.136-.22-.676-.4-1.2-.4-.524 0-1.051-.159-1.17-.352-.12-.194-.626-.451-1.124-.572a87.866 87.866 0 0 1-2.506-.675c-.88-.25-2.23-.61-3-.801-.77-.191-2.12-.554-3-.807a48.674 48.674 0 0 0-3.5-.826c-1.045-.202-2.845-.548-4-.769-2.434-.466-6.665-1.069-11.5-1.638-3.75-.442-30.869-.958-31.232-.594M170.2 119.261c-10.725 3.554-22.823 19.476-33.158 43.639-.353.825-.906 2.085-1.228 2.8-1.229 2.728-6.357 16.742-8.086 22.1-.994 3.08-1.969 5.913-2.168 6.295a3.815 3.815 0 0 0-.36 1.476c0 .43-.18.893-.4 1.029-.22.136-.4.689-.4 1.229 0 .54-.163 1.294-.363 1.676-.351.671-1.339 3.71-2.079 6.395-.197.715-.538 1.93-.758 2.7-.22.77-.59 2.075-.823 2.9-.232.825-.576 2.04-.763 2.7-.952 3.347-4.48 17.484-5.591 22.4-2.326 10.302-2.605 11.588-3.191 14.7-1.292 6.876-1.511 8.141-2.023 11.7-.189 1.32-.55 3.75-.801 5.4-2.53 16.637-2.92 37.848-.984 53.6.235 1.909.414 2.459 1.635 5 1.025 2.134 3.828 4.002 6.545 4.363 6.108.81 22.794-1.081 26.491-3.002.382-.199.941-.361 1.243-.361 2.187 0 8.572-4.52 10.577-7.486 1.837-2.718 2.04-3.42 2.518-8.714.335-3.722.571-7.741 1.584-27 .214-4.07.569-10.73.789-14.8.22-4.07.576-10.82.79-15 .485-9.442.979-13.826 2.39-21.2.211-1.1.57-2.99.798-4.2.393-2.08.738-3.76 1.579-7.7.2-.935.554-2.69.788-3.9.407-2.106 1.924-9.347 4.484-21.4.654-3.08 1.363-6.545 1.577-7.7.695-3.762 1.224-6.658 1.625-8.9.217-1.21.566-3.1.777-4.2 3.098-16.191 4.559-29.692 4.568-42.2.01-13.341-1.571-16.331-7.582-14.339" fill="#fbfbfc"/><path d="M178.3.275c-1.925.086-3.5.329-3.5.541 0 .211-1.26.384-2.8.384-1.6 0-2.8.171-2.8.4 0 .222-1.067.4-2.4.4s-2.4.178-2.4.4c0 .22-1.001.4-2.224.4-1.38 0-2.129.152-1.976.4.151.244-.463.4-1.576.4-1.003 0-1.824.18-1.824.4 0 .22-.799.4-1.776.4s-1.888.18-2.024.4c-.136.22-.856.4-1.6.4-.744 0-1.464.18-1.6.4-.136.22-.877.4-1.647.4-.832 0-1.3.162-1.153.4.147.238-.321.4-1.153.4-.77 0-1.511.18-1.647.4-.136.22-.687.4-1.224.4-.537 0-.976.18-.976.4 0 .22-.585.395-1.3.389-1.376-.012-10.406 2.8-10.633 3.311-.074.165-.569.3-1.1.3-.532 0-.967.147-.967.328 0 .18-.9.572-2 .872-1.1.3-2 .692-2 .872 0 .181-.36.328-.8.328-.44 0-.8.18-.8.4 0 .22-.439.4-.976.4-.537 0-1.088.18-1.224.4-.136.22-.597.4-1.024.4-.427 0-.776.18-.776.4 0 .22-.36.4-.8.4-.44 0-.8.18-.8.4 0 .22-.36.4-.8.4-.44 0-.8.18-.8.4 0 .22-.324.4-.72.4-.894 0-2.873.894-2.877 1.3-.002.165-.237.3-.523.3-.736 0-2.673.941-2.677 1.3-.002.165-.363.3-.803.3-.44 0-.8.18-.8.4 0 .22-.32.4-.712.4-.391 0-.971.36-1.288.8-.317.44-.897.8-1.288.8-.392 0-.712.18-.712.4 0 .22-.36.4-.8.4-.44 0-.8.18-.8.4 0 .22-.145.355-.322.3-.316-.098-3.286 1.29-3.678 1.719-.11.12-1.505 1.017-3.1 1.992-1.595.975-2.9 1.912-2.9 2.081 0 .169-.32.308-.712.308-.391 0-.971.36-1.288.8-.317.44-.857.8-1.2.8-.343 0-.883.36-1.2.8-.317.44-.809.8-1.092.8-.283 0-1.08.54-1.771 1.2-.691.66-1.459 1.2-1.708 1.2-.249 0-.712.36-1.029.8-.317.44-.825.8-1.128.8-.303 0-1.055.54-1.672 1.2-.617.66-1.236 1.2-1.377 1.2-.283 0-.96.531-2.424 1.9-.529.495-1.106.9-1.281.9-.176 0-1.374.99-2.664 2.2-1.29 1.21-2.509 2.2-2.708 2.2-.2 0-2.431 2.115-4.957 4.7-5.516 5.642-4.247 4.373-9.889 9.889-2.585 2.526-4.7 4.757-4.7 4.957 0 .199-.99 1.418-2.2 2.708-1.21 1.29-2.2 2.488-2.2 2.664 0 .175-.405.752-.9 1.281-1.369 1.464-1.9 2.141-1.9 2.424 0 .141-.54.76-1.2 1.377-.66.617-1.2 1.369-1.2 1.672 0 .303-.36.811-.8 1.128-.44.317-.8.78-.8 1.029 0 .249-.54 1.017-1.2 1.708-.66.691-1.2 1.488-1.2 1.771 0 .283-.36.775-.8 1.092-.44.317-.8.857-.8 1.2 0 .343-.36.883-.8 1.2-.44.317-.8.897-.8 1.288 0 .392-.139.712-.308.712-.169 0-1.106 1.305-2.081 2.9-.975 1.595-1.872 2.99-1.992 3.1-.429.392-1.817 3.362-1.719 3.678.055.177-.08.322-.3.322-.22 0-.4.36-.4.8 0 .44-.18.8-.4.8-.22 0-.4.32-.4.712 0 .391-.36.971-.8 1.288-.44.317-.8.897-.8 1.288 0 .392-.18.712-.4.712-.22 0-.4.36-.4.8 0 .44-.135.801-.3.803-.359.004-1.3 1.941-1.3 2.677 0 .286-.135.521-.3.523-.406.004-1.3 1.983-1.3 2.877 0 .396-.18.72-.4.72-.22 0-.4.36-.4.8 0 .44-.18.8-.4.8-.22 0-.4.36-.4.8 0 .44-.18.8-.4.8-.22 0-.4.349-.4.776 0 .427-.18.888-.4 1.024-.22.136-.4.687-.4 1.224 0 .537-.18.976-.4.976-.22 0-.4.36-.4.8 0 .44-.147.8-.328.8-.18 0-.572.9-.872 2-.3 1.1-.692 2-.872 2-.181 0-.328.435-.328.967 0 .531-.135 1.026-.3 1.1-.511.227-3.323 9.257-3.311 10.633.006.715-.169 1.3-.389 1.3s-.4.439-.4.976c0 .537-.18 1.088-.4 1.224-.22.136-.4.877-.4 1.647 0 .832-.162 1.3-.4 1.153-.238-.147-.4.321-.4 1.153 0 .77-.18 1.511-.4 1.647-.22.136-.4.856-.4 1.6 0 .744-.18 1.464-.4 1.6-.22.136-.4 1.047-.4 2.024 0 .977-.18 1.776-.4 1.776-.22 0-.4.821-.4 1.824 0 1.113-.156 1.727-.4 1.576-.248-.153-.4.596-.4 1.976 0 1.223-.18 2.224-.4 2.224-.222 0-.4 1.067-.4 2.4s-.178 2.4-.4 2.4c-.228 0-.4 1.189-.4 2.767 0 1.857-.164 2.821-.5 2.933-.732.244-.732 49.956 0 50.2.336.112.5 1.076.5 2.933 0 1.578.172 2.767.4 2.767.222 0 .4 1.067.4 2.4s.178 2.4.4 2.4c.22 0 .4 1.001.4 2.224 0 1.38.152 2.129.4 1.976.244-.151.4.463.4 1.576 0 1.003.18 1.824.4 1.824.22 0 .4.799.4 1.776s.18 1.888.4 2.024c.22.136.4.856.4 1.6 0 .744.18 1.464.4 1.6.22.136.4.877.4 1.647 0 .832.162 1.3.4 1.153.238-.147.4.321.4 1.153 0 .77.18 1.511.4 1.647.22.136.4.687.4 1.224 0 .537.18.976.4.976.22 0 .395.585.389 1.3-.012 1.376 2.8 10.406 3.311 10.633.165.074.3.569.3 1.1 0 .532.147.967.328.967.18 0 .572.9.872 2 .3 1.1.692 2 .872 2 .181 0 .328.36.328.8 0 .44.18.8.4.8.22 0 .4.439.4.976 0 .537.18 1.088.4 1.224.22.136.4.597.4 1.024 0 .427.18.776.4.776.22 0 .4.36.4.8 0 .44.18.8.4.8.22 0 .4.36.4.8 0 .44.18.8.4.8.22 0 .4.324.4.72 0 .894.894 2.873 1.3 2.877.165.002.3.237.3.523 0 .736.941 2.673 1.3 2.677.165.002.3.363.3.803 0 .44.18.8.4.8.22 0 .4.32.4.712 0 .391.36.971.8 1.288.44.317.8.897.8 1.288 0 .392.18.712.4.712.22 0 .4.36.4.8 0 .44.18.8.4.8.22 0 .355.145.3.322-.098.316 1.29 3.286 1.719 3.678.12.11 1.017 1.505 1.992 3.1.975 1.595 1.912 2.9 2.081 2.9.169 0 .308.32.308.712 0 .391.36.971.8 1.288.44.317.8.857.8 1.2 0 .343.36.883.8 1.2.44.317.8.809.8 1.092 0 .283.54 1.08 1.2 1.771.66.691 1.2 1.459 1.2 1.708 0 .249.36.712.8 1.029.44.317.8.825.8 1.128 0 .303.54 1.055 1.2 1.672.66.617 1.2 1.236 1.2 1.377 0 .283.531.96 1.9 2.424.495.529.9 1.106.9 1.281 0 .176.99 1.374 2.2 2.664 1.21 1.29 2.2 2.509 2.2 2.708 0 .2 2.115 2.431 4.7 4.957 5.642 5.516 4.373 4.247 9.889 9.889 2.526 2.585 4.757 4.7 4.957 4.7.199 0 1.418.99 2.708 2.2 1.29 1.21 2.488 2.2 2.664 2.2.175 0 .752.405 1.281.9 1.464 1.369 2.141 1.9 2.424 1.9.141 0 .76.54 1.377 1.2.617.66 1.369 1.2 1.672 1.2.303 0 .811.36 1.128.8.317.44.78.8 1.029.8.249 0 1.017.54 1.708 1.2.691.66 1.488 1.2 1.771 1.2.283 0 .775.36 1.092.8.317.44.857.8 1.2.8.343 0 .883.36 1.2.8.317.44.897.8 1.288.8.392 0 .712.139.712.308 0 .169 1.305 1.106 2.9 2.081 1.595.975 2.99 1.872 3.1 1.992.392.429 3.362 1.817 3.678 1.719.177-.055.322.08.322.3 0 .22.36.4.8.4.44 0 .8.18.8.4 0 .22.32.4.712.4.391 0 .971.36 1.288.8.317.44.897.8 1.288.8.392 0 .712.18.712.4 0 .22.36.4.8.4.44 0 .801.135.803.3.004.359 1.941 1.3 2.677 1.3.286 0 .521.135.523.3.004.406 1.983 1.3 2.877 1.3.396 0 .72.18.72.4 0 .22.36.4.8.4.44 0 .8.18.8.4 0 .22.36.4.8.4.44 0 .8.18.8.4 0 .22.349.4.776.4.427 0 .888.18 1.024.4.136.22.687.4 1.224.4.537 0 .976.18.976.4 0 .22.36.4.8.4.44 0 .8.147.8.328 0 .18.9.572 2 .872 1.1.3 2 .692 2 .872 0 .181.435.328.967.328.531 0 1.026.135 1.1.3.227.511 9.257 3.323 10.633 3.311.715-.006 1.3.169 1.3.389s.439.4.976.4c.537 0 1.088.18 1.224.4.136.22.877.4 1.647.4.832 0 1.3.162 1.153.4-.147.238.321.4 1.153.4.77 0 1.511.18 1.647.4.136.22.856.4 1.6.4.744 0 1.464.18 1.6.4.136.22 1.047.4 2.024.4.977 0 1.776.18 1.776.4 0 .22.821.4 1.824.4 1.113 0 1.727.156 1.576.4-.153.248.596.4 1.976.4 1.223 0 2.224.18 2.224.4 0 .222 1.067.4 2.4.4s2.4.178 2.4.4c0 .228 1.189.4 2.767.4 1.857 0 2.821.164 2.933.5.244.732 49.956.732 50.2 0 .112-.336 1.076-.5 2.933-.5 1.578 0 2.767-.172 2.767-.4 0-.222 1.067-.4 2.4-.4s2.4-.178 2.4-.4c0-.22 1.001-.4 2.224-.4 1.38 0 2.129-.152 1.976-.4-.151-.244.463-.4 1.576-.4 1.003 0 1.824-.18 1.824-.4 0-.22.799-.4 1.776-.4s1.888-.18 2.024-.4c.136-.22.856-.4 1.6-.4.744 0 1.464-.18 1.6-.4.136-.22.877-.4 1.647-.4.832 0 1.3-.162 1.153-.4-.147-.238.321-.4 1.153-.4.77 0 1.511-.18 1.647-.4.136-.22.687-.4 1.224-.4.537 0 .976-.18.976-.4 0-.22.585-.395 1.3-.389 1.376.012 10.406-2.8 10.633-3.311.074-.165.569-.3 1.1-.3.532 0 .967-.147.967-.328 0-.18.9-.572 2-.872 1.1-.3 2-.692 2-.872 0-.181.36-.328.8-.328.44 0 .8-.18.8-.4 0-.22.439-.4.976-.4.537 0 1.088-.18 1.224-.4.136-.22.597-.4 1.024-.4.427 0 .776-.18.776-.4 0-.22.36-.4.8-.4.44 0 .8-.18.8-.4 0-.22.36-.4.8-.4.44 0 .8-.18.8-.4 0-.22.324-.4.72-.4.894 0 2.873-.894 2.877-1.3.002-.165.237-.3.523-.3.736 0 2.673-.941 2.677-1.3.002-.165.363-.3.803-.3.44 0 .8-.18.8-.4 0-.22.32-.4.712-.4.391 0 .971-.36 1.288-.8.317-.44.897-.8 1.288-.8.392 0 .712-.18.712-.4 0-.22.36-.4.8-.4.44 0 .8-.18.8-.4 0-.22.145-.355.322-.3.316.098 3.286-1.29 3.678-1.719.11-.12 1.505-1.017 3.1-1.992 1.595-.975 2.9-1.912 2.9-2.081 0-.169.32-.308.712-.308.391 0 .971-.36 1.288-.8.317-.44.857-.8 1.2-.8.343 0 .883-.36 1.2-.8.317-.44.809-.8 1.092-.8.283 0 1.08-.54 1.771-1.2.691-.66 1.459-1.2 1.708-1.2.249 0 .712-.36 1.029-.8.317-.44.825-.8 1.128-.8.303 0 1.055-.54 1.672-1.2.617-.66 1.236-1.2 1.377-1.2.283 0 .96-.531 2.424-1.9.529-.495 1.106-.9 1.281-.9.176 0 1.374-.99 2.664-2.2 1.29-1.21 2.509-2.2 2.708-2.2.2 0 2.431-2.115 4.957-4.7 5.516-5.642 4.247-4.373 9.889-9.889 2.585-2.526 4.7-4.757 4.7-4.957 0-.199.99-1.418 2.2-2.708 1.21-1.29 2.2-2.488 2.2-2.664 0-.175.405-.752.9-1.281 1.369-1.464 1.9-2.141 1.9-2.424 0-.141.54-.76 1.2-1.377.66-.617 1.2-1.369 1.2-1.672 0-.303.36-.811.8-1.128.44-.317.8-.78.8-1.029 0-.249.54-1.017 1.2-1.708.66-.691 1.2-1.488 1.2-1.771 0-.283.36-.775.8-1.092.44-.317.8-.857.8-1.2 0-.343.36-.883.8-1.2.44-.317.8-.897.8-1.288 0-.392.139-.712.308-.712.169 0 1.106-1.305 2.081-2.9.975-1.595 1.872-2.99 1.992-3.1.429-.392 1.817-3.362 1.719-3.678-.055-.177.08-.322.3-.322.22 0 .4-.36.4-.8 0-.44.18-.8.4-.8.22 0 .4-.32.4-.712 0-.391.36-.971.8-1.288.44-.317.8-.897.8-1.288 0-.392.18-.712.4-.712.22 0 .4-.36.4-.8 0-.44.135-.801.3-.803.359-.004 1.3-1.941 1.3-2.677 0-.286.135-.521.3-.523.406-.004 1.3-1.983 1.3-2.877 0-.396.18-.72.4-.72.22 0 .4-.36.4-.8 0-.44.18-.8.4-.8.22 0 .4-.36.4-.8 0-.44.18-.8.4-.8.22 0 .4-.349.4-.776 0-.427.18-.888.4-1.024.22-.136.4-.687.4-1.224 0-.537.18-.976.4-.976.22 0 .4-.36.4-.8 0-.44.147-.8.328-.8.18 0 .572-.9.872-2 .3-1.1.692-2 .872-2 .181 0 .328-.435.328-.967 0-.531.135-1.026.3-1.1.511-.227 3.323-9.257 3.311-10.633-.006-.715.169-1.3.389-1.3s.4-.439.4-.976c0-.537.18-1.088.4-1.224.22-.136.4-.877.4-1.647 0-.832.162-1.3.4-1.153.238.147.4-.321.4-1.153 0-.77.18-1.511.4-1.647.22-.136.4-.856.4-1.6 0-.744.18-1.464.4-1.6.22-.136.4-1.047.4-2.024 0-.977.18-1.776.4-1.776.22 0 .4-.821.4-1.824 0-1.113.156-1.727.4-1.576.248.153.4-.596.4-1.976 0-1.223.18-2.224.4-2.224.222 0 .4-1.067.4-2.4s.178-2.4.4-2.4c.228 0 .4-1.189.4-2.767 0-1.857.164-2.821.5-2.933.393-.131.5-5.509.5-25.1s-.107-24.969-.5-25.1c-.336-.112-.5-1.076-.5-2.933 0-1.578-.172-2.767-.4-2.767-.222 0-.4-1.067-.4-2.4s-.178-2.4-.4-2.4c-.22 0-.4-1.001-.4-2.224 0-1.38-.152-2.129-.4-1.976-.244.151-.4-.463-.4-1.576 0-1.003-.18-1.824-.4-1.824-.22 0-.4-.799-.4-1.776s-.18-1.888-.4-2.024c-.22-.136-.4-.856-.4-1.6 0-.744-.18-1.464-.4-1.6-.22-.136-.4-.877-.4-1.647 0-.832-.162-1.3-.4-1.153-.238.147-.4-.321-.4-1.153 0-.77-.18-1.511-.4-1.647-.22-.136-.4-.687-.4-1.224 0-.537-.18-.976-.4-.976-.22 0-.395-.585-.389-1.3.012-1.376-2.8-10.406-3.311-10.633-.165-.074-.3-.569-.3-1.1 0-.532-.147-.967-.328-.967-.18 0-.572-.9-.872-2-.3-1.1-.692-2-.872-2-.181 0-.328-.36-.328-.8 0-.44-.18-.8-.4-.8-.22 0-.4-.439-.4-.976 0-.537-.18-1.088-.4-1.224-.22-.136-.4-.597-.4-1.024 0-.427-.18-.776-.4-.776-.22 0-.4-.36-.4-.8 0-.44-.18-.8-.4-.8-.22 0-.4-.36-.4-.8 0-.44-.18-.8-.4-.8-.22 0-.4-.324-.4-.72 0-.894-.894-2.873-1.3-2.877-.165-.002-.3-.237-.3-.523 0-.736-.941-2.673-1.3-2.677-.165-.002-.3-.363-.3-.803 0-.44-.18-.8-.4-.8-.22 0-.4-.32-.4-.712 0-.391-.36-.971-.8-1.288-.44-.317-.8-.897-.8-1.288 0-.392-.18-.712-.4-.712-.22 0-.4-.36-.4-.8 0-.44-.18-.8-.4-.8-.22 0-.355-.145-.3-.322.098-.316-1.29-3.286-1.719-3.678-.12-.11-1.017-1.505-1.992-3.1-.975-1.595-1.912-2.9-2.081-2.9-.169 0-.308-.32-.308-.712 0-.391-.36-.971-.8-1.288-.44-.317-.8-.857-.8-1.2 0-.343-.36-.883-.8-1.2-.44-.317-.8-.809-.8-1.092 0-.283-.54-1.08-1.2-1.771-.66-.691-1.2-1.459-1.2-1.708 0-.249-.36-.712-.8-1.029-.44-.317-.8-.825-.8-1.128 0-.303-.54-1.055-1.2-1.672-.66-.617-1.2-1.236-1.2-1.377 0-.283-.531-.96-1.9-2.424-.495-.529-.9-1.106-.9-1.281 0-.176-.99-1.374-2.2-2.664-1.21-1.29-2.2-2.509-2.2-2.708 0-.2-2.115-2.431-4.7-4.957-5.642-5.516-4.373-4.247-9.889-9.889-2.526-2.585-4.757-4.7-4.957-4.7-.199 0-1.418-.99-2.708-2.2-1.29-1.21-2.488-2.2-2.664-2.2-.175 0-.752-.405-1.281-.9-1.464-1.369-2.141-1.9-2.424-1.9-.141 0-.76-.54-1.377-1.2-.617-.66-1.369-1.2-1.672-1.2-.303 0-.811-.36-1.128-.8-.317-.44-.78-.8-1.029-.8-.249 0-1.017-.54-1.708-1.2-.691-.66-1.488-1.2-1.771-1.2-.283 0-.775-.36-1.092-.8-.317-.44-.857-.8-1.2-.8-.343 0-.883-.36-1.2-.8-.317-.44-.897-.8-1.288-.8-.392 0-.712-.139-.712-.308 0-.169-1.305-1.106-2.9-2.081-1.595-.975-2.99-1.872-3.1-1.992-.392-.429-3.362-1.817-3.678-1.719-.177.055-.322-.08-.322-.3 0-.22-.36-.4-.8-.4-.44 0-.8-.18-.8-.4 0-.22-.32-.4-.712-.4-.391 0-.971-.36-1.288-.8-.317-.44-.897-.8-1.288-.8-.392 0-.712-.18-.712-.4 0-.22-.36-.4-.8-.4-.44 0-.801-.135-.803-.3-.004-.359-1.941-1.3-2.677-1.3-.286 0-.521-.135-.523-.3-.004-.406-1.983-1.3-2.877-1.3-.396 0-.72-.18-.72-.4 0-.22-.36-.4-.8-.4-.44 0-.8-.18-.8-.4 0-.22-.36-.4-.8-.4-.44 0-.8-.18-.8-.4 0-.22-.349-.4-.776-.4-.427 0-.888-.18-1.024-.4-.136-.22-.687-.4-1.224-.4-.537 0-.976-.18-.976-.4 0-.22-.36-.4-.8-.4-.44 0-.8-.147-.8-.328 0-.18-.9-.572-2-.872-1.1-.3-2-.692-2-.872 0-.181-.435-.328-.967-.328-.531 0-1.026-.135-1.1-.3-.227-.511-9.257-3.323-10.633-3.311-.715.006-1.3-.169-1.3-.389s-.439-.4-.976-.4c-.537 0-1.088-.18-1.224-.4-.136-.22-.877-.4-1.647-.4-.832 0-1.3-.162-1.153-.4.147-.238-.321-.4-1.153-.4-.77 0-1.511-.18-1.647-.4-.136-.22-.856-.4-1.6-.4-.744 0-1.464-.18-1.6-.4-.136-.22-1.047-.4-2.024-.4-.977 0-1.776-.18-1.776-.4 0-.22-.821-.4-1.824-.4-1.113 0-1.727-.156-1.576-.4.153-.248-.596-.4-1.976-.4-1.223 0-2.224-.18-2.224-.4 0-.222-1.067-.4-2.4-.4s-2.4-.178-2.4-.4c0-.228-1.189-.4-2.767-.4-1.835 0-2.822-.166-2.93-.492-.162-.486-37.812-.834-46.803-.433m35.1 68.127c6.517.475 11.392 1.133 17.8 2.403a97.24 97.24 0 0 0 3.703.658c.826.122 1.602.382 1.723.579.122.197.83.358 1.574.358.744 0 1.464.18 1.6.4.136.22.642.403 1.124.406.957.007 3.696.881 4.135 1.32.151.151.684.274 1.184.274.5 0 1.021.18 1.157.4.136.22.676.4 1.2.4.524 0 1.064.18 1.2.4.136.22.509.4.828.4 2.175 0 20.686 9.996 22.172 11.972.11.147.828.706 1.596 1.243 3.98 2.783 11.832 10.767 14.499 14.744 1.122 1.673 2.145 3.131 2.273 3.241.127.11.429.56.67 1 1.06 1.94 1.576 2.814 1.77 3 .221.213 2.278 4.426 3.346 6.853 6.381 14.507 7.15 37.601 1.804 54.147-.427 1.32-.976 3.03-1.221 3.8-2.491 7.838-9.786 20.292-16.507 28.184-5.914 6.944-17.569 17.416-19.384 17.416-.245 0-.446.152-.446.337 0 .186-.855.771-1.9 1.3-1.045.53-1.96 1.098-2.033 1.263-.074.165-.464.3-.867.3-.403 0-.793.136-.867.302-.073.166-1.393.908-2.933 1.649-4.413 2.125-5.885 2.76-7.6 3.277-.88.266-1.96.617-2.4.782-.988.369-3.196.965-6.6 1.781-13.323 3.195-38.606 2.357-46.415-1.538-.719-.359-1.473-.653-1.674-.653-.202 0-1.209-.574-2.239-1.276-7.887-5.377-8.361-14.374-.872-16.548 1.21-.351 2.753-.804 3.428-1.007.676-.203 1.765-.369 2.42-.369.656 0 1.363-.163 1.572-.363.209-.2 1.28-.46 2.38-.579 1.1-.118 3.08-.412 4.4-.652 1.32-.241 3.12-.539 4-.663.88-.124 1.771-.387 1.98-.584.209-.197 1.053-.359 1.876-.359s1.608-.18 1.744-.4c.136-.22.856-.4 1.6-.4.744 0 1.464-.18 1.6-.4.136-.22.766-.4 1.4-.4.634 0 1.264-.18 1.4-.4.136-.22.599-.4 1.029-.4a3.88 3.88 0 0 0 1.476-.353 23.472 23.472 0 0 1 1.695-.747c5.531-2.174 12.446-7.326 15.895-11.842 1.033-1.352 2.019-2.518 2.192-2.591.172-.074.313-.311.313-.528 0-.217.503-1.147 1.117-2.067 2.34-3.5 5.156-10.125 6.153-14.472.201-.88.552-2.32.779-3.2 1.773-6.881 2.694-24.662 1.607-31-.805-4.688-1.739-8.282-2.603-10.015-.359-.719-.653-1.55-.653-1.846 0-.297-.18-.539-.4-.539-.22 0-.4-.36-.4-.8 0-.44-.18-.8-.4-.8-.22 0-.4-.19-.4-.422 0-1.727-7.108-9.716-11-12.364-1.1-.749-2.09-1.463-2.2-1.588-.778-.88-7.044-3.879-10.2-4.881-.88-.28-1.771-.652-1.98-.827-.209-.175-.749-.321-1.2-.324-.451-.003-1.614-.282-2.585-.62-8.616-3-32.142-3.482-45.835-.939l-4.2.78c-.99.184-2.61.539-3.6.789-.99.25-2.387.551-3.104.669-.717.119-1.402.376-1.523.571-.121.196-.739.356-1.373.356s-1.264.18-1.4.4c-.136.22-.599.4-1.029.4-.43 0-1.139.18-1.576.4l-1.59.8c-.437.22-1.069.4-1.405.4-.336 0-.923.159-1.305.353-.382.195-1.235.576-1.895.847-.66.271-1.513.652-1.895.847-.382.194-.967.353-1.3.353-.333 0-.605.18-.605.4 0 .22-.272.4-.605.4-.333 0-.918.171-1.3.379-.664.362-10.498 5.12-19.166 9.271-2.238 1.073-4.343 1.95-4.676 1.95-.333 0-.705.16-.826.356-.59.954-10.397 1.59-12.203.79-2.437-1.078-2.988-3.61-1.595-7.331.693-1.852 5.102-9.155 5.926-9.815.137-.11.741-.859 1.341-1.665.601-.806 1.32-1.706 1.598-2 .278-.294 1.013-1.214 1.634-2.044C114.663 94.749 133.035 83.37 150 76.7c.55-.216 1.313-.552 1.695-.747a3.88 3.88 0 0 1 1.476-.353c.43 0 .893-.18 1.029-.4.136-.22.676-.4 1.2-.4.524 0 1.064-.18 1.2-.4.136-.22.676-.4 1.2-.4.524 0 1.064-.18 1.2-.4.136-.22.676-.4 1.2-.4.524 0 1.052-.16 1.173-.356.121-.195.806-.452 1.523-.571.717-.118 2.024-.4 2.904-.626 13.904-3.568 29.02-4.599 47.6-3.245m-36.9 51.256c.605.721 1.1 1.778 1.1 2.347s.19 1.225.422 1.457c.286.286.357 4.394.222 12.78-.24 14.87-.448 17.123-3.047 32.958-.235 1.43-.527 3.41-.651 4.4-.123.99-.386 1.971-.585 2.18-.198.209-.361 1.233-.361 2.276 0 1.043-.157 1.994-.35 2.113-.192.119-.458 1.165-.591 2.324-.225 1.962-.468 3.348-1.438 8.207-.209 1.045-.554 2.8-.767 3.9-.214 1.1-.861 4.25-1.439 7-.928 4.417-1.869 8.94-3.08 14.8-.204.99-.535 2.61-.735 3.6-.2.99-.56 2.7-.8 3.8-1.385 6.344-2.62 12.902-3.239 17.2-.546 3.793-.935 9.813-2.363 36.6-.205 3.85-.56 10.42-.789 14.6-.228 4.18-.582 10.75-.786 14.6-.475 8.971-.546 9.365-2.37 13.099-2.612 5.35-10.655 9.615-21.253 11.272-14.745 2.305-23.178 1.4-24.995-2.684-.217-.488-.532-.887-.7-.887-.168 0-.305-.349-.305-.776 0-.427-.159-.875-.354-.995-1.495-.925-2.618-20.356-2.012-34.829.427-10.186.86-14.828 2.349-25.2.222-1.54.505-3.7.631-4.8.125-1.1.389-2.36.586-2.8.197-.44.458-1.655.579-2.7.553-4.756.722-5.724 1.06-6.08.198-.209.361-.916.361-1.572 0-.655.166-1.744.369-2.42.203-.675.572-2.218.82-3.428.484-2.367.625-2.993 2.251-10 1.326-5.717 3.82-15.454 5.021-19.6.222-.77.501-1.897.618-2.505.117-.608.372-1.203.567-1.324.195-.12.354-.737.354-1.371s.18-1.264.4-1.4c.22-.136.4-.766.4-1.4 0-.634.18-1.264.4-1.4.22-.136.4-.676.4-1.2 0-.524.18-1.064.4-1.2.22-.136.4-.766.4-1.4 0-.634.18-1.264.4-1.4.22-.136.4-.676.4-1.2 0-.524.18-1.064.4-1.2.22-.136.4-.599.4-1.029 0-.43.162-1.094.361-1.476.199-.382.576-1.505.839-2.495.263-.99.64-2.113.839-2.495.199-.382.361-1.021.361-1.42s.143-.896.318-1.105c.175-.209.548-1.1.829-1.98.281-.88.841-2.5 1.244-3.6.404-1.1 1.391-3.8 2.195-6 .803-2.2 1.63-4.313 1.837-4.695.207-.382.377-.888.377-1.125s.518-1.544 1.15-2.905a203.205 203.205 0 0 0 1.841-4.075c2.843-6.587 6.479-13.699 10.122-19.802 10.195-17.072 24.402-27.486 29.387-21.54" fill="#048cfc"/><path d="M195.3 68.298c2.145.072 5.655.072 7.8 0 2.145-.072.39-.131-3.9-.131s-6.045.059-3.9.131m-8.4.378c.385.1 1.015.1 1.4 0 .385-.101.07-.183-.7-.183s-1.085.082-.7.183m22.2.006a5.661 5.661 0 0 0 1.8 0c.495-.095.09-.173-.9-.173s-1.395.078-.9.173M279.4 94.4c.859.88 1.652 1.6 1.762 1.6.11 0-.503-.72-1.362-1.6-.859-.88-1.652-1.6-1.762-1.6-.11 0 .503.72 1.362 1.6m-168.013 5.7L109 102.6l2.5-2.387c2.322-2.218 2.683-2.613 2.387-2.613-.061 0-1.186 1.125-2.5 2.5m173.813.425c0 .069.585.654 1.3 1.3l1.3 1.175-1.175-1.3c-1.095-1.212-1.425-1.484-1.425-1.175m-98.484.572c1.383.078 3.543.077 4.8-.002 1.256-.079.124-.143-2.516-.142-2.64 0-3.668.065-2.284.144m-7.016.39a8.899 8.899 0 0 0 2.2 0c.605-.092.11-.167-1.1-.167-1.21 0-1.705.075-1.1.167m16.2-.005a5.661 5.661 0 0 0 1.8 0c.495-.095.09-.173-.9-.173s-1.395.078-.9.173m-33.5 2.118c-.804.257-.843.323-.2.332.44.006 1.16-.143 1.6-.332 1.019-.438-.032-.438-1.4 0m67.2 7.346c0 .11.54.584 1.2 1.054.66.47 1.2.764 1.2.654 0-.11-.54-.584-1.2-1.054-.66-.47-1.2-.764-1.2-.654m-64.907 10.468c-.821.558-1.493 1.101-1.493 1.206 0 .105.72-.285 1.6-.867 1.397-.925 1.87-1.353 1.493-1.353-.059 0-.779.456-1.6 1.014m-61.393 3.677c.825.087 2.175.087 3 0 .825-.086.15-.157-1.5-.157s-2.325.071-1.5.157m55.478 1.209-1.378 1.5 1.5-1.378c.825-.759 1.5-1.434 1.5-1.5 0-.306-.338-.018-1.622 1.378m19.391 7.7c0 4.51.058 6.355.129 4.1.072-2.255.072-5.945 0-8.2-.071-2.255-.129-.41-.129 4.1m121.087-7.2c0 .33.155.96.344 1.4.217.504.344.578.344.2 0-.33-.155-.96-.344-1.4-.217-.504-.344-.578-.344-.2m2.468 15.8c.002 1.32.077 1.812.166 1.093.089-.719.087-1.799-.004-2.4s-.164-.013-.162 1.307M177.693 146c0 .77.082 1.085.183.7.1-.385.1-1.015 0-1.4-.101-.385-.183-.07-.183.7m70.035 2.4c0 1.43.073 2.015.161 1.3.089-.715.089-1.885 0-2.6-.088-.715-.161-.13-.161 1.3m-70.419 2.8c0 .99.078 1.395.173.9a5.661 5.661 0 0 0 0-1.8c-.095-.495-.173-.09-.173.9m124.415 1c.002 1.32.077 1.812.166 1.093.089-.719.087-1.799-.004-2.4s-.164-.013-.162 1.307m-54.831 9c0 .77.082 1.085.183.7.1-.385.1-1.015 0-1.4-.101-.385-.183-.07-.183.7m53.336 3.029c-.148.586-.191 1.143-.097 1.237.095.094.292-.308.439-.895.148-.586.191-1.143.097-1.237-.095-.094-.292.308-.439.895m-.8 3.6c-.148.586-.191 1.143-.097 1.237.095.094.292-.308.439-.895.148-.586.191-1.143.097-1.237-.095-.094-.292.308-.439.895m-129.6 27.2c-.148.586-.191 1.143-.097 1.237.095.094.292-.308.439-.895.148-.586.191-1.143.097-1.237-.095-.094-.292.308-.439.895m-1.6 7.6c-.148.586-.191 1.143-.097 1.237.095.094.292-.308.439-.895.148-.586.191-1.143.097-1.237-.095-.094-.292.308-.439.895m106.363 8.271L270.6 215l4.1-3.992c2.255-2.196 4.1-4.041 4.1-4.1 0-.29-.499.184-4.208 3.992m-94.883 8.7c0 .99.078 1.395.173.9a5.661 5.661 0 0 0 0-1.8c-.095-.495-.173-.09-.173.9m33.208 15.097c1.494.077 3.834.077 5.2-.001 1.365-.078.143-.141-2.717-.141-2.86.001-3.978.065-2.483.142M160.12 246.4c0 1.21.075 1.705.167 1.1a8.899 8.899 0 0 0 0-2.2c-.092-.605-.167-.11-.167 1.1m-.419 5.8c.004.88.086 1.193.182.695.096-.497.092-1.217-.008-1.6-.1-.382-.179.025-.174.905m-.364 8.4c.002 1.76.072 2.43.156 1.489.085-.94.084-2.38-.002-3.2-.086-.819-.155-.049-.154 1.711m-51.644 5.8c0 .77.082 1.085.183.7.1-.385.1-1.015 0-1.4-.101-.385-.183-.07-.183.7m51.208.6c.004.88.086 1.193.182.695.096-.497.092-1.217-.008-1.6-.1-.382-.179.025-.174.905m-52 5.2c.004.88.086 1.193.182.695.096-.497.092-1.217-.008-1.6-.1-.382-.179.025-.174.905m51.636 3.6c.002 1.76.072 2.43.156 1.489.085-.94.084-2.38-.002-3.2-.086-.819-.155-.049-.154 1.711m-52.436 3.6c.004.88.086 1.193.182.695.096-.497.092-1.217-.008-1.6-.1-.382-.179.025-.174.905m52 2.4c.004.88.086 1.193.182.695.096-.497.092-1.217-.008-1.6-.1-.382-.179.025-.174.905m-52.408 3c0 .77.082 1.085.183.7.1-.385.1-1.015 0-1.4-.101-.385-.183-.07-.183.7m-.347 7.4c.001 2.2.068 3.049.149 1.887.081-1.163.081-2.963-.002-4-.082-1.038-.148-.087-.147 2.113m52.385-1.2c.002 1.54.074 2.121.161 1.291.087-.83.085-2.09-.003-2.8-.089-.71-.16-.031-.158 1.509m-.43 5.6c.004.88.086 1.193.182.695.096-.497.092-1.217-.008-1.6-.1-.382-.179.025-.174.905m-51.953 11c0 2.31.066 3.255.147 2.1a36.327 36.327 0 0 0 0-4.2c-.081-1.155-.147-.21-.147 2.1m51.583-1.4c.002 1.54.074 2.121.161 1.291.087-.83.085-2.09-.003-2.8-.089-.71-.16-.031-.158 1.509m-50.83 12.8c.004.88.086 1.193.182.695.096-.497.092-1.217-.008-1.6-.1-.382-.179.025-.174.905m45.674 4.3-1.175 1.3 1.3-1.175c1.212-1.095 1.484-1.425 1.175-1.425-.069 0-.654.585-1.3 1.3m-43.375 4.825c0 .069.585.654 1.3 1.3l1.3 1.175-1.175-1.3c-1.095-1.212-1.425-1.484-1.425-1.175m19.505 3.358c.497.096 1.217.092 1.6-.008.382-.1-.025-.179-.905-.174-.88.004-1.193.086-.695.182m-3.805.393c.385.1 1.015.1 1.4 0 .385-.101.07-.183-.7-.183s-1.085.082-.7.183" fill="#62b6fc"/><path d="M193.723 68.699c2.818.069 7.318.069 10 0 2.682-.069.377-.126-5.123-.126-5.5.001-7.695.057-4.877.126M181.8 69.2l-1.6.286 1.6.034c.88.019 2.32-.115 3.2-.297l1.6-.331-1.6.011c-.88.006-2.32.139-3.2.297m31.8.02c.99.177 2.52.313 3.4.304l1.6-.016-1.6-.331c-.88-.182-2.41-.319-3.4-.304l-1.8.027 1.8.32m-37.4.78-1.2.305 1.2.02c.66.01 1.56-.136 2-.325l.8-.344-.8.019c-.44.011-1.34.157-2 .325m45 0c.55.176 1.63.317 2.4.314l1.4-.006-1.6-.331c-2.137-.442-3.604-.427-2.2.023m-49.6.8-1 .32 1 .012c.55.006 1.36-.143 1.8-.332l.8-.344-.8.012c-.44.006-1.25.156-1.8.332m55.4 0c.44.189 1.25.338 1.8.332l1-.012-1-.32c-.55-.176-1.36-.326-1.8-.332l-.8-.012.8.344m-59 .8c-.824.264-.859.326-.2.354.44.019 1.07-.141 1.4-.354.701-.453.214-.453-1.2 0m63.2 0c.33.213 1.05.373 1.6.354l1-.034-1-.32c-1.542-.494-2.364-.494-1.6 0m-66.6.8-.8.344.8.022c.44.012 1.07-.153 1.4-.366.795-.514-.204-.514-1.4 0m70.6-.018c.33.223.945.409 1.367.412 1.023.008.704-.221-.767-.55-.876-.196-1.038-.159-.6.138m-73.6.818c-.533.345-.533.388 0 .388.33 0 .87-.175 1.2-.388.533-.345.533-.388 0-.388-.33 0-.87.175-1.2.388m76.4 0c.33.213.96.378 1.4.366l.8-.022-.8-.344c-1.196-.514-2.195-.514-1.4 0m-79 .8c-.771.331-.769.345.076.372.482.015.988-.152 1.124-.372.292-.473-.099-.473-1.2 0m82.2-.018c.33.223.945.409 1.367.412 1.023.008.704-.221-.767-.55-.876-.196-1.038-.159-.6.138m-84.6.818c-.771.331-.769.345.076.372.482.015.988-.152 1.124-.372.292-.473-.099-.473-1.2 0m-2.4.8c-.771.331-.769.345.076.372.482.015.988-.152 1.124-.372.292-.473-.099-.473-1.2 0m92 0c.136.22.642.387 1.124.372.845-.027.847-.041.076-.372-1.101-.473-1.492-.473-1.2 0m2.4.8c.136.22.642.387 1.124.372.845-.027.847-.041.076-.372-1.101-.473-1.492-.473-1.2 0m2.401.801c.135.22.411.399.613.399.472 0 5.002 2.045 8.586 3.876 1.54.787 2.62 1.243 2.4 1.013-1.065-1.111-12.137-6.158-11.599-5.288m-103.531.98c-1.763.628-2.284 1.019-1.36 1.019.353 0 .754-.18.89-.4.136-.22.586-.4 1-.4.414 0 .864-.18 1-.4.3-.485.355-.491-1.53.181m-4.07 1.768-3.5 1.601c-2.118.97-2.644 1.582-.6.699 2.901-1.255 5.9-2.718 5.9-2.878 0-.242-.024-.234-1.8.578m119.8 3.041c0 .104.585.475 1.3.824l1.3.634-1-.815c-.963-.785-1.6-1.041-1.6-.643m-130.889 2.37c-2.324 1.381-2.329 1.646-.011.481 1.155-.58 2.1-1.141 2.1-1.248 0-.344-.571-.135-2.089.767m133.889-.673c.775.783 6.703 4.603 6.412 4.132-.163-.263-1.492-1.24-2.954-2.172-3.316-2.114-3.986-2.494-3.458-1.96m-137.5 2.742c-.605.328-1.1.681-1.1.784 0 .386.632.144 1.6-.613 1.189-.93 1.011-.991-.5-.171m-7.118 4.518c-5.203 3.681-13.739 11.253-12.686 11.253.149 0 1.134-.922 2.188-2.049 2.394-2.559 7.105-6.477 10.516-8.746 3.091-2.055 2.976-1.966 2.767-2.158-.092-.083-1.345.682-2.785 1.7m159.811 4.964c2.644 2.7 5.617 6.115 6.607 7.587.99 1.472 1.95 2.682 2.134 2.689.463.018-2.196-3.596-5.288-7.187-2.271-2.638-7.709-8-8.113-8-.081 0 2.016 2.21 4.66 4.911m-93.486 3.779c.719.089 1.799.087 2.4-.004s.013-.164-1.307-.162c-1.32.002-1.812.077-1.093.166m-11.507.53c-1.241.164-.02.201 2.8.086 2.75-.113 5.075-.272 5.167-.355.269-.244-5.573-.046-7.967.269m19.8-.007c1.54.158 3.79.282 5 .274 2.144-.013 2.129-.02-.6-.3-1.54-.158-3.79-.282-5-.274-2.144.013-2.129.02.6.3m-26.8.787-1.6.286 1.4.034c.77.019 2.12-.115 3-.297l1.6-.331-1.4.011c-.77.006-2.12.139-3 .297m35.4-.02c.999.34 3.482.552 3.167.271-.092-.082-1.067-.252-2.167-.379-1.349-.156-1.674-.121-1 .108m-40 .82c-1.357.286-1.363.295-.2.307.66.008 1.65-.131 2.2-.307 1.312-.42-.004-.42-2 0m44.2-.045c1.129.459 4.136.885 3.4.481-.33-.181-1.41-.436-2.4-.568-1.079-.143-1.48-.108-1 .087M107.021 105.4c-.811.99-1.347 1.8-1.192 1.8.282 0 .65-.417 2.204-2.5 1.316-1.763.601-1.268-1.012.7m51.779-1.417c-.891.285-2.021.602-5.13 1.44-.512.137-.858.323-.769.412.089.089 1.588-.221 3.331-.688a559.42 559.42 0 0 1 4.368-1.158c1.081-.277 1.101-.308.2-.316-.55-.006-1.45.134-2 .31m54.433-.239c.092.079.707.264 1.367.412.876.196 1.038.159.6-.138-.54-.365-2.368-.62-1.967-.274m3.567 1.042c.55.175 1.968.706 3.152 1.181 1.184.474 2.244.77 2.357.657.113-.113-.135-.315-.552-.45-.416-.134-1.636-.589-2.71-1.009-1.075-.421-2.245-.75-2.6-.731-.356.019-.197.178.353.352m-68.6 2.414c-.292.473.099.473 1.2 0 .771-.331.769-.345-.076-.372-.482-.015-.988.152-1.124.372m142.724 1.4c.338.66.914 1.56 1.28 2 .366.44.261.08-.234-.8-1.09-1.942-1.906-2.878-1.046-1.2M226 108.59c0 .104.585.475 1.3.824l1.3.634-1-.815c-.963-.785-1.6-1.041-1.6-.643m-122.057.91c-3.289 3.963-6.63 12.181-5.289 13.01.19.117.347-.624.349-1.648.003-2.149 1.607-5.848 4.177-9.633 1.596-2.35 1.957-3.167.763-1.729m128.238 3.036c.451.405 1.78 1.634 2.954 2.731 1.175 1.098 2.209 1.922 2.298 1.833.161-.16-4.259-4.135-5.452-4.902-.34-.219-.25-.067.2.338m60.628-.636c.005.165.376.75.824 1.3l.815 1-.634-1.3c-.603-1.235-1.025-1.655-1.005-1m-160.756 1.953c-.74.323-1.252.681-1.137.796.115.115.9-.156 1.746-.602 1.773-.936 1.379-1.061-.609-.194m-9.175 4.518c-2.927 1.507-5.447 2.879-5.6 3.049-.153.169-.098.219.122.11l5.9-2.913c3.025-1.493 5.5-2.782 5.5-2.866 0-.364-.905.037-5.922 2.62m116.74 1.853c1.093 1.443 2.269 3.17 2.614 3.837.345.667.719 1.121.832 1.009.306-.306-4.673-7.47-5.192-7.47-.132 0 .654 1.181 1.746 2.624M169.4 119.2c-.504.217-.578.344-.2.344.33 0 .96-.155 1.4-.344.504-.217.578-.344.2-.344-.33 0-.96.155-1.4.344m6.04.445c.463.525.962 1.296 1.11 1.712.148.417.376.65.507.519.348-.348-1.161-2.779-1.861-2.999-.404-.127-.326.12.244.768m-61.24 2.825c-3.441 1.386-3.723 1.534-2.4 1.259 1.29-.269 5.464-2.063 4.8-2.064-.22 0-1.3.362-2.4.805m-14.818 1.101c.286.463 3 1.381 3.273 1.107.111-.111-.349-.323-1.022-.471-.673-.148-1.327-.435-1.452-.638-.126-.203-.408-.369-.628-.369-.22 0-.297.167-.171.371m77.898.429c0 .55.144 1.45.32 2l.32 1v-1c0-.55-.144-1.45-.32-2l-.32-1v1m-18.692 2.812c-1.743 1.753-3.059 3.188-2.924 3.188.333 0 6.392-6.077 6.225-6.244-.072-.073-1.558 1.303-3.301 3.056M107.2 124.4l-1 .32 1-.007c.55-.004 1.54-.145 2.2-.313l1.2-.305-1.2-.008c-.66-.004-1.65.137-2.2.313m191.228.676c.09 1.039.716 1.92.744 1.048.015-.482-.152-.988-.372-1.124-.22-.136-.387-.102-.372.076m-54.827 1.527c.21.551.626 1.496.926 2.1.584 1.178 1.902 5.995 2.708 9.897.307 1.49.5 5.889.507 11.6.01 8.391.038 8.76.315 4.2.672-11.029-.582-20.249-3.678-27.045-.856-1.879-1.41-2.415-.778-.752M299.268 128c.02 1.039.65 2.746.664 1.8.006-.44-.143-1.16-.332-1.6-.211-.49-.339-.568-.332-.2m-145.491 4.3c-.836 1.045-1.623 2.087-1.749 2.316-.324.59 1.831-1.8 2.809-3.116 1.363-1.834.564-1.231-1.06.8m146.505.7c.127 1.1.295 2.075.374 2.167.299.347.072-2.603-.259-3.367-.223-.515-.264-.087-.115 1.2m.823 6.6c.113 2.09.27 3.875.35 3.967.282.323.061-5.781-.245-6.767-.171-.55-.218.71-.105 2.8m-152.723.5a838.795 838.795 0 0 1-2.181 3.5c-1.142 1.821-2.4 4.314-1.916 3.8.207-.22 1.333-2.02 2.502-4 1.169-1.98 2.391-4.005 2.715-4.5.325-.495.498-.9.386-.9-.113 0-.79.945-1.506 2.1m29.116 2.659c-.164 1.407-.274 3.567-.244 4.8.046 1.921.105 1.726.409-1.359.42-4.264.277-7.24-.165-3.441m124.233 4.641c.002 1.54.074 2.121.161 1.291.087-.83.085-2.09-.003-2.8-.089-.71-.16-.031-.158 1.509m-159.513 3.418c-.821 1.563-1.414 2.919-1.319 3.014.096.096.828-1.121 1.628-2.705.8-1.583 1.394-2.94 1.319-3.014-.074-.074-.807 1.143-1.628 2.705m34.375 2.896c-.149 1.199-.198 2.519-.108 2.933.09.414.304-.476.475-1.978.171-1.503.219-2.823.108-2.934-.111-.111-.325.779-.475 1.979m124.684.13a82.822 82.822 0 0 1-.266 4.4l-.189 1.956.407-1.951c.223-1.073.343-3.053.266-4.4l-.141-2.449-.077 2.444m-125.401 5.366c-.146.545-.248 1.53-.227 2.19.031.957.11.836.393-.6.387-1.967.26-3.183-.166-1.59m71.163 2.89c-.287 2.713-.786 5.473-1.706 9.438-.324 1.396-.496 2.633-.381 2.748.115.114.318-.308.451-.939s.398-1.867.588-2.747c1.1-5.094 1.912-11 1.512-11-.11 0-.319 1.125-.464 2.5m53.415-.5c-.035.55-.158 1.45-.271 2l-.206 1 .43-.985c.236-.541.358-1.441.271-2l-.158-1.015-.066 1m-125.378 2.81c-.146.545-.248 1.53-.227 2.19.031.957.11.836.393-.6.387-1.967.26-3.183-.166-1.59m124.374 2.04c-.333 1.667-.01 1.99.35.35.152-.691.193-1.341.091-1.442-.102-.102-.3.389-.441 1.092m-165.235 2.165c-.385 1.009-.611 1.922-.502 2.031.108.109.487-.653.841-1.692s.58-1.953.503-2.031c-.078-.077-.457.684-.842 1.692m40.034.8c-.137.358-.229 1.221-.205 1.918.038 1.104.089 1.038.392-.508.357-1.82.258-2.568-.187-1.41m124.38.414c-.148.586-.178 1.155-.068 1.265.11.11.32-.279.468-.865.147-.587.177-1.156.067-1.266-.11-.11-.32.279-.467.866m-.8 2.8c-.148.586-.191 1.143-.097 1.237.095.094.292-.308.439-.895.148-.586.191-1.143.097-1.237-.095-.094-.292.308-.439.895m-165.748 1.651-1.647 4.485c-.68 1.851-1.169 3.433-1.087 3.515.082.082.893-1.867 1.801-4.332.909-2.464 1.583-4.55 1.499-4.635-.085-.084-.34.35-.566.967m41.375-.196c-.135.504-.228 1.366-.207 1.916.023.589.182.271.387-.775.367-1.873.237-2.698-.18-1.141M297 175.2c-.15.473-.183.95-.073 1.06.11.11.323-.187.473-.66.15-.473.183-.95.073-1.06-.11-.11-.323.187-.473.66m-52.554-.133c-.025.257-.162.797-.305 1.2-.201.569-.147.63.238.275.273-.251.41-.791.305-1.2-.105-.408-.212-.532-.238-.275m-71.797 3.148c-.137.358-.229 1.221-.205 1.918.038 1.104.089 1.038.392-.508.357-1.82.258-2.568-.187-1.41m-.86 5.285c-.143 1.045-.423 2.53-.622 3.3s-.349 1.85-.333 2.4c.016.55.261-.08.545-1.4.701-3.265 1.113-6.2.87-6.2-.11 0-.317.855-.46 1.9m-43.934 2.555c-.591 1.792-1.005 3.328-.921 3.412.084.085.638-1.312 1.23-3.103.592-1.792 1.006-3.327.92-3.413-.085-.086-.639 1.311-1.229 3.104m111.198 1.645-.72 1.3.825-1c.731-.887 1.056-1.6.728-1.6-.062 0-.437.585-.833 1.3m-2.352 3.52c-.809 1.089-1.343 1.973-1.186 1.964.363-.019 3.008-3.595 2.807-3.795-.082-.082-.811.742-1.621 1.831m53.213-.52c-.545.825-1.286 2.07-1.646 2.767-.359.696-2.097 3.171-3.861 5.5-1.764 2.328-3.072 4.226-2.907 4.218.607-.031 6.521-8.487 9.571-13.685.587-.999-.333-.045-1.157 1.2m-119.676.871c-.655 3.381-.713 3.812-.488 3.598.315-.296 1.106-4.446.89-4.662-.09-.09-.271.389-.402 1.064m-44.592 1.096c-.025.257-.162.797-.305 1.2-.201.569-.147.63.238.275.273-.251.41-.791.305-1.2-.105-.408-.212-.532-.238-.275M232 196.514c-1.65 1.596-3.63 3.404-4.4 4.019-1.238.989-1.191.977.4-.105 1.855-1.261 4.12-3.294 6.175-5.542 1.99-2.178.974-1.417-2.175 1.628m-107.154-1.447c-.025.257-.162.797-.305 1.2-.201.569-.147.63.238.275.273-.251.41-.791.305-1.2-.105-.408-.212-.532-.238-.275m44.408 1.333c-.035.55-.158 1.45-.271 2l-.206 1 .43-.985c.236-.541.358-1.441.271-2l-.158-1.015-.066 1m-45.208 1.467c-.025.257-.162.797-.305 1.2-.201.569-.147.63.238.275.273-.251.41-.791.305-1.2-.105-.408-.212-.532-.238-.275m44.403 2.333a17.47 17.47 0 0 1-.266 1.8l-.206 1 .429-.981c.236-.54.355-1.35.266-1.8-.159-.798-.165-.798-.223-.019m-45.42.829c-.148.586-.178 1.155-.068 1.265.11.11.32-.279.468-.865.147-.587.177-1.156.067-1.266-.11-.11-.32.279-.467.866m101.055 1.637c-.944.569-1.636 1.115-1.537 1.214.177.177 3.453-1.847 3.453-2.133 0-.226-.083-.187-1.916.919m-56.63 2.088c-.154.964-.196 1.837-.093 1.94.269.269.754-2.549.546-3.172-.095-.286-.299.268-.453 1.232m111.37 1.139c-.977 1.237-1.578 2.126-1.336 1.976.705-.435 3.82-4.271 3.449-4.247-.185.013-1.136 1.034-2.113 2.271m-60.624-.271c-.88.416-1.397.762-1.149.768.581.013 3.349-1.14 3.349-1.395 0-.318-.509-.173-2.2.627m-51.578 3c-.15.803-.184 1.55-.074 1.66.11.11.324-.457.474-1.26.151-.803.184-1.549.074-1.659-.11-.11-.323.456-.474 1.259M212 207.6l-1 .32 1 .034c.55.019 1.27-.141 1.6-.354.764-.494-.058-.494-1.6 0m-3.2.8-1 .32 1.076.04c.592.022 1.188-.14 1.324-.36.281-.455.02-.455-1.4 0m-3.4.8c-1.107.282-1.123.309-.2.347.55.022 1.27-.134 1.6-.347.681-.44.329-.44-1.4 0m-4.2.8-1.4.295 1.4.046c.77.026 1.67-.128 2-.341.727-.47.233-.47-2 0m-4.2.8-1.6.286 1.4.029c.77.016 1.76-.126 2.2-.315.943-.405.262-.405-2 0m-31.178 1.822c-.15.803-.194 1.54-.096 1.638.098.097.301-.479.452-1.282.15-.803.194-1.54.096-1.638-.098-.097-.301.479-.452 1.282M192.4 211.6c-1.357.286-1.363.295-.2.307.66.008 1.65-.131 2.2-.307 1.312-.42-.004-.42-2 0m-3.8.8c-1.089.277-1.107.307-.2.325.55.01 1.36-.136 1.8-.325.986-.424.066-.424-1.6 0m82 1.847c-1.1.997-3.71 3.089-5.8 4.649-3.87 2.89-5.114 3.911-4 3.283 1.079-.607 5.993-4.168 7.297-5.286 2.115-1.815 4.916-4.475 4.703-4.466-.11.005-1.1.824-2.2 1.82m-87.558-.14c-2.734 1.567-4.168 7.327-2.292 9.203.315.315.327.055.043-.934-1.255-4.377.325-7.572 4.344-8.786.812-.245.874-.328.263-.349-.44-.015-1.501.374-2.358.866M165 216.4c-.152.691-.186 1.347-.076 1.457.11.11.324-.366.476-1.057.152-.691.186-1.347.076-1.457-.11-.11-.324.366-.476 1.057m-46.771 1.429c-.148.586-.191 1.143-.097 1.237.095.094.292-.308.439-.895.148-.586.191-1.143.097-1.237-.095-.094-.292.308-.439.895M164.2 220.4c-.152.691-.186 1.347-.076 1.457.11.11.324-.366.476-1.057.152-.691.186-1.347.076-1.457-.11-.11-.324.366-.476 1.057m-46.771.629c-.148.586-.191 1.143-.097 1.237.095.094.292-.308.439-.895.148-.586.191-1.143.097-1.237-.095-.094-.292.308-.439.895m-.756 2.724c-.15.392-.262 1.013-.248 1.38.017.442.156.341.412-.299.212-.531.324-1.152.248-1.38-.076-.227-.261-.093-.412.299m46.776.062c-.137.358-.233 1.041-.213 1.518.026.614.149.475.423-.477.398-1.384.235-2.198-.21-1.041m17.751.455c0 .618 3.164 4.027 3.184 3.43.009-.275-.148-.5-.349-.5-.201 0-.921-.755-1.6-1.679-.679-.923-1.235-1.486-1.235-1.251m74.4.563-1 .815 1.3-.634c.715-.349 1.3-.72 1.3-.824 0-.398-.637-.142-1.6.643M115.8 227.2c-.152.691-.193 1.341-.091 1.442.102.102.3-.389.441-1.092.333-1.667.01-1.99-.35-.35m46.778.978c-.151.803-.184 1.549-.074 1.659.11.11.323-.456.474-1.259.15-.803.184-1.55.074-1.66-.11-.11-.324.457-.474 1.26m84.675.475c-.74.323-1.252.681-1.137.796.115.115.9-.156 1.746-.602 1.773-.936 1.379-1.061-.609-.194m-132.197 1.431c-.135.504-.229 1.276-.21 1.716.019.44.199.098.4-.76.39-1.662.224-2.5-.19-.956M243.6 230c-.533.345-.533.388 0 .388.33 0 .87-.175 1.2-.388.533-.345.533-.388 0-.388-.33 0-.87.175-1.2.388m-81.751 1.815c-.137.358-.233 1.041-.213 1.518.026.614.149.475.423-.477.398-1.384.235-2.198-.21-1.041m29.351-.215c.33.213.96.378 1.4.366l.8-.022-.8-.344c-1.196-.514-2.195-.514-1.4 0m47 0-.8.344.8.022c.44.012 1.07-.153 1.4-.366.795-.514-.204-.514-1.4 0m-44.2.8c.33.213 1.05.373 1.6.354l1-.034-1-.32c-1.542-.494-2.364-.494-1.6 0m40.8 0c-.804.257-.843.323-.2.332.44.006 1.16-.143 1.6-.332 1.019-.438-.032-.438-1.4 0m-121.369 5.085-1.435 6.315c-.201.88-.46 2.23-.576 3-.311 2.068.354.054.99-3 .275-1.32.935-4.265 1.467-6.545.531-2.28.889-4.222.796-4.316-.094-.093-.652 1.952-1.242 4.546m84.369-4.299c.757.339 4.121.578 3.767.268-.092-.08-1.157-.254-2.367-.386-1.437-.156-1.922-.116-1.4.118m32.4.014-1.6.286 1.6.029c.88.016 1.96-.126 2.4-.315l.8-.344-.8.029c-.44.016-1.52.157-2.4.315m-26.2.827c1.789.312 9.885.505 9.567.228-.092-.079-2.687-.234-5.767-.343-3.288-.117-4.857-.069-3.8.115m18-.027-3.8.247 3.4.053c1.87.03 4.12-.095 5-.277 1.906-.394 1.17-.398-4.6-.023m-60.924 2.01a8.163 8.163 0 0 0-.23 1.99c.025.718.138.557.403-.573.406-1.732.251-3.002-.173-1.417m-.82 4.874c-.135.504-.226 1.546-.204 2.316.034 1.134.11.989.4-.761.368-2.214.244-3.196-.196-1.555m-.764 7.516c-.157 1.21-.261 3.82-.231 5.8l.054 3.6.347-5c.378-5.454.284-7.901-.17-4.4m-48.838 1.554c-.154.964-.196 1.837-.093 1.94.269.269.754-2.549.546-3.172-.095-.286-.299.268-.453 1.232m-.595 3.446c-.039.66-.163 1.65-.276 2.2l-.206 1 .431-.986c.236-.542.36-1.532.275-2.2l-.155-1.214-.069 1.2m-.8 4.6c-.039.55-.17 1.45-.292 2-.191.862-.159.902.23.291.249-.389.38-1.289.292-2-.125-1.004-.176-1.069-.23-.291m49.43 5.559c-.159 1.407-.263 4.107-.231 6 .055 3.253.077 3.157.402-1.759.38-5.748.279-8.237-.171-4.241m-50.219-.909a32.272 32.272 0 0 1-.281 2.6c-.193 1.236-.174 1.267.219.364.236-.542.363-1.712.281-2.6-.121-1.312-.162-1.381-.219-.364m-1.024 6.897c-.157 1.18-.2 2.232-.096 2.336.267.267.772-3.319.557-3.958-.096-.289-.304.441-.461 1.622m-.578 5.053c-.042.66-.169 1.92-.283 2.8-.179 1.393-.15 1.473.223.615.236-.541.363-1.801.283-2.8-.092-1.13-.176-1.362-.223-.615m51.013 3.759c-.155 1.407-.255 4.287-.222 6.4.056 3.659.075 3.566.4-1.959.368-6.26.275-8.574-.178-4.441m-51.997 6.592c-.174 2.393-.234 4.432-.135 4.531.298.298.723-4.73.582-6.882-.093-1.425-.222-.749-.447 2.351m51.2 8.449c-.153 1.54-.253 4.51-.222 6.6.051 3.448.088 3.244.395-2.2.367-6.505.273-8.896-.173-4.4m-51.738 6.4c.001 2.2.068 3.049.149 1.887.081-1.163.081-2.963-.002-4-.082-1.038-.148-.087-.147 2.113m51.014 7.1c-.073 2.352-.678 8.876-.938 10.1-.198.936-.128.867.318-.31.578-1.524 1.358-11.09.904-11.09-.134 0-.262.585-.284 1.3m-50.675 5.1c-.008.99.125 2.7.297 3.8l.311 2 .024-2c.013-1.1-.12-2.81-.297-3.8l-.32-1.8-.015 1.8m47.754 8.621c-.811 1.221-2.298 2.796-3.304 3.5-2.832 1.981-3.253 2.375-1.76 1.649 1.626-.79 5.123-4.248 6.148-6.079 1.132-2.024.538-1.514-1.084.93m-46.964-.221c.011.55.157 1.54.325 2.2l.305 1.2.02-1.4c.01-.77-.136-1.76-.325-2.2-.312-.726-.342-.707-.325.2m1.525 6.407c0 .749 3.852 4.393 4.644 4.393.355 0-.225-.585-1.291-1.3-1.065-.715-2.138-1.708-2.385-2.207-.598-1.208-.968-1.547-.968-.886m37.07.272c-.622.326-1.044.681-.937.787.209.21 2.667-.966 2.667-1.276 0-.298-.506-.155-1.73.489m-5.87 2.121c-.533.345-.533.388 0 .388.33 0 .87-.175 1.2-.388.533-.345.533-.388 0-.388-.33 0-.87.175-1.2.388m-3.4.8c-1.019.438.032.438 1.4 0 .804-.257.843-.323.2-.332-.44-.006-1.16.143-1.6.332m-5 .8-1 .32 1-.007c.55-.004 1.54-.145 2.2-.313l1.2-.305-1.2-.008c-.66-.004-1.65.137-2.2.313m-16.307.86c1.224.351 7.983.331 10.707-.032 1.442-.193-.18-.283-4.707-.261-3.799.018-6.499.15-6 .293" fill="#9bd0fc"/><path d="M196.118 67.898c1.715.075 4.415.074 6-.001 1.585-.076.182-.138-3.118-.137-3.3.001-4.597.062-2.882.138m-7.618.389a8.899 8.899 0 0 0 2.2 0c.605-.092.11-.167-1.1-.167-1.21 0-1.705.075-1.1.167m19.005-.004c.497.096 1.217.092 1.6-.008.382-.1-.025-.179-.905-.174-.88.004-1.193.086-.695.182m-24.398.407c.719.089 1.799.087 2.4-.004s.013-.164-1.307-.162c-1.32.002-1.812.077-1.093.166m28.693-.091c.22.074 2.02.213 4 .309 1.98.095 3.15.038 2.6-.128-.952-.286-7.435-.464-6.6-.181m-36.179.98c-.375.237.049.286 1.2.139.978-.126 1.854-.293 1.946-.373.375-.326-2.612-.105-3.146.234m44.812-.234c.092.079 1.247.242 2.567.362 1.449.131 2.083.085 1.6-.117-.77-.321-4.507-.541-4.167-.245m6.4.798c.092.078.797.258 1.567.399.985.181 1.222.14.8-.136-.542-.356-2.763-.603-2.367-.263M167.6 71.218c-.438.297-.276.334.6.138 1.471-.329 1.79-.558.767-.55-.422.003-1.037.189-1.367.412m63.233-.275c.092.078.797.258 1.567.399.985.181 1.222.14.8-.136-.542-.356-2.763-.603-2.367-.263M260 80.579c0 .11.54.48 1.2.821.66.341 1.2.531 1.2.421 0-.11-.54-.48-1.2-.821-.66-.341-1.2-.531-1.2-.421m5 2.828c.44.359 1.16.828 1.6 1.044l.8.393-.8-.651c-.44-.359-1.16-.828-1.6-1.044l-.8-.393.8.651m-131.9 1.02c-.825.436-1.5.881-1.5.991 0 .109.72-.169 1.6-.618.88-.449 1.6-.903 1.6-1.008 0-.262-.003-.261-1.7.635m-6.3 3.606-1 .815 1.3-.634c.715-.349 1.3-.72 1.3-.824 0-.398-.637-.142-1.6.643M281.582 96.2c5.02 5.36 6.535 6.819 3.324 3.2-1.562-1.76-3.707-4.01-4.767-5-1.06-.99-.411-.18 1.443 1.8m-166.607.3-1.175 1.3 1.3-1.175c1.212-1.095 1.484-1.425 1.175-1.425-.069 0-.654.585-1.3 1.3m-3.789 3.4L109 102.2l2.3-2.186c2.137-2.032 2.483-2.414 2.186-2.414-.062 0-1.097 1.035-2.3 2.3m72.714 1.589c.715.089 1.885.089 2.6 0 .715-.088.13-.161-1.3-.161-1.43 0-2.015.073-1.3.161m7.191 0c.71.088 1.97.09 2.8.003.83-.087.249-.159-1.291-.161-1.54-.002-2.219.069-1.509.158m-16.891.517c-.703.182.042.222 1.8.097 1.65-.118 3.075-.279 3.167-.359.308-.266-3.754-.053-4.967.262m24.7-.119a8.899 8.899 0 0 0 2.2 0c.605-.092.11-.167-1.1-.167-1.21 0-1.705.075-1.1.167m-35.1 1.713c-.504.217-.578.344-.2.344.33 0 .96-.155 1.4-.344.504-.217.578-.344.2-.344-.33 0-.96.155-1.4.344m49.8.8c.33.213.87.388 1.2.388.533 0 .533-.043 0-.388-.33-.213-.87-.388-1.2-.388-.533 0-.533.043 0 .388M99.532 115.82c-.674 1.441-1.157 2.688-1.073 2.772.084.084.721-1.094 1.415-2.619.694-1.525 1.177-2.773 1.073-2.773-.104 0-.741 1.179-1.415 2.62m134.509-1.12c.022.165.967 1.103 2.1 2.085l2.059 1.786-1.985-2.086c-2.029-2.131-2.245-2.309-2.174-1.785m-61.541 3.576c.385.1 1.015.1 1.4 0 .385-.101.07-.183-.7-.183s-1.085.082-.7.183M98.109 120.8c0 .99.078 1.395.173.9a5.661 5.661 0 0 0 0-1.8c-.095-.495-.173-.09-.173.9m68.591-.971c-1.551.841-1.375 1.132.2.33 1.508-.766 1.775-.965 1.267-.943-.202.009-.862.285-1.467.613m11.163 4.651c.337 1.769.537 1.921.537.41 0-.683-.177-1.352-.394-1.486-.246-.152-.3.251-.143 1.076m-69.463.32c-.824.264-.859.326-.2.354.44.019 1.07-.141 1.4-.354.701-.453.214-.453-1.2 0m50.175 1.3-1.175 1.3 1.3-1.175c1.212-1.095 1.484-1.425 1.175-1.425-.069 0-.654.585-1.3 1.3m142.318 7.1c0 .77.082 1.085.183.7.1-.385.1-1.015 0-1.4-.101-.385-.183-.07-.183.7m-148.972.7c-.621.719-3.524 5.029-4.11 6.1-.719 1.314.55-.329 2.704-3.5 2.198-3.236 2.608-3.995 1.406-2.6m94.135 1.3c0 .33.155.96.344 1.4.217.504.344.578.344.2 0-.33-.155-.96-.344-1.4-.217-.504-.344-.578-.344-.2m55.645 3.8c.004.88.086 1.193.182.695.096-.497.092-1.217-.008-1.6-.1-.382-.179.025-.174.905m-54.373 4.2c0 1.43.073 2.015.161 1.3.089-.715.089-1.885 0-2.6-.088-.715-.161-.13-.161 1.3m54.803.6c.002 1.54.074 2.121.161 1.291.087-.83.085-2.09-.003-2.8-.089-.71-.16-.031-.158 1.509m-124.058.2c-.045 1.21-.169 2.92-.276 3.8l-.194 1.6.417-1.327c.229-.73.353-2.44.275-3.8l-.141-2.473-.081 2.2m124.058 7c.002 1.54.074 2.121.161 1.291.087-.83.085-2.09-.003-2.8-.089-.71-.16-.031-.158 1.509m-54.791 3.4c0 1.87.069 2.635.153 1.7.084-.935.084-2.465 0-3.4s-.153-.17-.153 1.7m-70.073-.333c-.037.807-.171 1.797-.297 2.2-.217.69-.204.692.224.026.249-.389.383-1.379.297-2.2l-.157-1.493-.067 1.467m124.447 2.133c.003 1.1.081 1.503.173.895.092-.609.09-1.509-.005-2-.095-.492-.171.005-.168 1.105m-125.26 3.667a8.132 8.132 0 0 1-.284 1.6c-.218.694-.206.695.226.021.251-.391.379-1.111.285-1.6-.172-.887-.172-.887-.227-.021m69.768 4.355c-.15.803-.194 1.54-.096 1.638.098.097.301-.479.452-1.282.15-.803.194-1.54.096-1.638-.098-.097-.301.479-.452 1.282m-70.573.578c-.033.33-.16 1.05-.282 1.6-.192.864-.16.903.232.288.249-.391.376-1.111.282-1.6-.095-.488-.199-.618-.232-.288m-41.053 1.472c-.338.809-.563 1.628-.499 1.819.064.191.419-.471.79-1.472.806-2.174.583-2.44-.291-.347m164.65 3.395c-.025.367-.15.997-.276 1.4-.218.695-.207.696.227.02.251-.391.376-1.021.276-1.4-.162-.619-.185-.621-.227-.02m-124.4.4c-.025.367-.15.997-.276 1.4-.218.695-.207.696.227.02.251-.391.376-1.021.276-1.4-.162-.619-.185-.621-.227-.02M244.6 172.4c-.15.473-.183.95-.073 1.06.11.11.323-.187.473-.66.15-.473.183-.95.073-1.06-.11-.11-.323.187-.473.66m-70.554 1.867c-.025.257-.162.797-.305 1.2-.201.569-.147.63.238.275.273-.251.41-.791.305-1.2-.105-.408-.212-.532-.238-.275m-.8 4.4c-.025.257-.162.797-.305 1.2-.201.569-.147.63.238.275.273-.251.41-.791.305-1.2-.105-.408-.212-.532-.238-.275m-1.017 5.162c-.148.586-.191 1.143-.097 1.237.095.094.292-.308.439-.895.148-.586.191-1.143.097-1.237-.095-.094-.292.308-.439.895m65.585 4.806c-.373.569-.609 1.103-.525 1.187.084.085.469-.381.855-1.034.862-1.46.604-1.579-.33-.153m-2.514 3.592c-.715.957-1.3 1.863-1.3 2.014 0 .151.648-.574 1.439-1.611.792-1.037 1.377-1.943 1.3-2.013-.076-.071-.724.654-1.439 1.61m53.7.973c-.341.66-.531 1.2-.421 1.2.11 0 .48-.54.821-1.2.341-.66.531-1.2.421-1.2-.11 0-.48.54-.821 1.2M169 200c-.152.691-.193 1.341-.091 1.442.102.102.3-.389.441-1.092.333-1.667.01-1.99-.35-.35m57.614.446c-2.101 1.58-2.298 1.841-.687.916 1.135-.652 2.92-2.217 2.435-2.135-.089.015-.876.564-1.748 1.219m57.16.254c-.616.825-1.987 2.514-3.047 3.754-1.06 1.24-1.927 2.375-1.927 2.523 0 .293 3.564-3.874 5.368-6.277.62-.825 1.037-1.5.927-1.5-.11 0-.704.675-1.321 1.5M205 208.8c-.292.473.099.473 1.2 0 .771-.331.769-.345-.076-.372-.482-.015-.988.152-1.124.372m-8.2 1.6c-.795.514.204.514 1.4 0l.8-.344-.8-.022c-.44-.012-1.07.153-1.4.366m-77.351 1.015a3.854 3.854 0 0 0-.215 1.318c.019.367.193.136.387-.513.377-1.262.244-1.887-.172-.805m72.751-.215c-.292.473.099.473 1.2 0 .771-.331.769-.345-.076-.372-.482-.015-.988.152-1.124.372m80.578 1.9-1.378 1.5 1.5-1.378c1.396-1.284 1.684-1.622 1.378-1.622-.066 0-.741.675-1.5 1.5m-90.434.924-.944.823 1.2-.702c1.579-.925 1.603-.945 1.111-.945-.232 0-.847.371-1.367.824m-63.695.191a3.854 3.854 0 0 0-.215 1.318c.019.367.193.136.387-.513.377-1.262.244-1.887-.172-.805m150.726 1.885-1.175 1.3 1.398-1.2c.769-.66 1.474-1.245 1.567-1.3.092-.055-.008-.1-.223-.1-.216 0-.921.585-1.567 1.3m-103.715-.033c-.033.587-.164 1.397-.29 1.8-.218.693-.205.694.225.023.251-.391.382-1.201.291-1.8l-.166-1.09-.06 1.067m99.94 2.949c-1.21.965-2.515 1.864-2.9 1.997-.385.132-.7.415-.7.628 0 .427 4.479-2.623 5.488-3.738.973-1.076.517-.807-1.888 1.113m-100.74 1.051c-.033.587-.164 1.397-.29 1.8-.218.693-.205.694.225.023.251-.391.382-1.201.291-1.8l-.166-1.09-.06 1.067m-47.796.233c-.495 1.825-.656 3.068-.325 2.5.395-.675.929-3.2.678-3.2-.09 0-.248.315-.353.7m46.99 3.567a8.132 8.132 0 0 1-.284 1.6c-.218.694-.206.695.226.021.251-.391.379-1.111.285-1.6-.172-.887-.172-.887-.227-.021m-.8 4a8.132 8.132 0 0 1-.284 1.6c-.218.694-.206.695.226.021.251-.391.379-1.111.285-1.6-.172-.887-.172-.887-.227-.021m20.353.05c.008.323 4.007 3.008 4.187 2.811.064-.07-.853-.795-2.039-1.611-1.185-.815-2.152-1.355-2.148-1.2m-69.161 2.95c-.025.367-.15.997-.276 1.4-.218.695-.207.696.227.02.251-.391.376-1.021.276-1.4-.162-.619-.185-.621-.227-.02m74.354.166c0 .299 2.966 1.394 3.469 1.281.278-.063-.389-.412-1.482-.775-1.093-.364-1.987-.592-1.987-.506m-26.346.834a8.132 8.132 0 0 1-.284 1.6c-.218.694-.206.695.226.021.251-.391.379-1.111.285-1.6-.172-.887-.172-.887-.227-.021m36.251 2.016c.497.096 1.217.092 1.6-.008.382-.1-.025-.179-.905-.174-.88.004-1.193.086-.695.182m31.195-.001a5.661 5.661 0 0 0 1.8 0c.495-.095.09-.173-.9-.173s-1.395.078-.9.173m-116.471 1.147c-.148.586-.191 1.143-.097 1.237.095.094.292-.308.439-.895.148-.586.191-1.143.097-1.237-.095-.094-.292.308-.439.895m92.482-.336c.94.085 2.38.084 3.2-.002.819-.086.049-.155-1.711-.154-1.76.002-2.43.072-1.489.156m15.789-.002c.825.087 2.175.087 3 0 .825-.086.15-.157-1.5-.157s-2.325.071-1.5.157m-8.2.404c1.155.081 3.045.081 4.2 0 1.155-.081.21-.147-2.1-.147s-3.255.066-2.1.147m-51.846 1.172a8.132 8.132 0 0 1-.284 1.6c-.218.694-.206.695.226.021.251-.391.379-1.111.285-1.6-.172-.887-.172-.887-.227-.021m-.795 4.933c-.039.55-.17 1.45-.292 2-.191.862-.159.902.23.291.249-.389.38-1.289.292-2-.125-1.004-.176-1.069-.23-.291m-.787 9c-.043 1.1-.162 2.99-.264 4.2l-.186 2.2.407-1.954c.224-1.075.343-2.965.265-4.2l-.143-2.246-.079 2m-50.623 3.615a3.854 3.854 0 0 0-.215 1.318c.019.367.193.136.387-.513.377-1.262.244-1.887-.172-.805m-.782 4.452c-.147.146-.256.641-.242 1.1.024.766.057.756.409-.125.392-.979.31-1.453-.167-.975m-.818 4.748c-.137.358-.233 1.041-.213 1.518.026.614.149.475.423-.477.398-1.384.235-2.198-.21-1.041m51.425 2.185c-.045.99-.167 2.79-.271 4-.184 2.127-.177 2.147.219.6.225-.88.347-2.68.271-4-.117-2.016-.152-2.112-.219-.6m-52.225 3.415c-.137.358-.233 1.041-.213 1.518.026.614.149.475.423-.477.398-1.384.235-2.198-.21-1.041m-.793 6.269c-.135.504-.226 1.456-.203 2.116.028.828.144.584.373-.787.35-2.09.248-2.887-.17-1.329m52.216 5.316c-.043.88-.165 2.59-.269 3.8-.184 2.128-.177 2.147.219.6.225-.88.346-2.59.269-3.8-.11-1.727-.157-1.856-.219-.6m-53.013 2.488c-.138.831-.228 2.502-.201 3.712.042 1.824.109 1.59.393-1.37.355-3.688.247-5-.192-2.342M157.672 295c-.043.88-.165 2.59-.269 3.8-.184 2.128-.177 2.147.219.6.225-.88.346-2.59.269-3.8-.11-1.727-.157-1.856-.219-.6m-52.724 5c0 2.31.066 3.255.147 2.1a36.327 36.327 0 0 0 0-4.2c-.081-1.155-.147-.21-.147 2.1m51.917 10c-.04.77-.161 2.12-.268 3l-.194 1.6.42-1.338c.231-.735.351-2.085.268-3-.143-1.571-.155-1.585-.226-.262m-51.637 3.833c.016 1.302.179 2.727.364 3.167.198.473.246-.427.117-2.2-.269-3.668-.519-4.172-.481-.967m.778 7.6c.003.642.178 1.437.389 1.767.26.409.304.09.137-1-.303-1.977-.534-2.314-.526-.767M139.6 329.6c-.824.264-.859.326-.2.354.44.019 1.07-.141 1.4-.354.701-.453.214-.453-1.2 0m-3.2.8c-.824.264-.859.326-.2.354.44.019 1.07-.141 1.4-.354.701-.453.214-.453-1.2 0m-5.695 1.083c.497.096 1.217.092 1.6-.008.382-.1-.025-.179-.905-.174-.88.004-1.193.086-.695.182m-4.205.393c.385.1 1.015.1 1.4 0 .385-.101.07-.183-.7-.183s-1.085.082-.7.183m-9.4.421a73.8 73.8 0 0 0 5.8 0c1.595-.076.29-.138-2.9-.138s-4.495.062-2.9.138" fill="#39a4fc"/></g></svg>