<?xml version="1.0" standalone="no"?>
<!DOCTYPE svg PUBLIC "-//W3C//DTD SVG 20010904//EN"
 "http://www.w3.org/TR/2001/REC-SVG-20010904/DTD/svg10.dtd">
<svg version="1.0" xmlns="http://www.w3.org/2000/svg"
 width="512.000000pt" height="512.000000pt" viewBox="0 0 512.000000 512.000000"
 preserveAspectRatio="xMidYMid meet">

<g transform="translate(0.000000,512.000000) scale(0.100000,-0.100000)"
fill="#000000" stroke="none">
<path d="M2435 5114 c-281 -17 -564 -78 -805 -174 -888 -354 -1495 -1143
-1611 -2095 -15 -129 -15 -441 0 -570 106 -864 624 -1610 1384 -1991 384 -193
735 -277 1157 -277 265 0 469 29 712 99 836 243 1499 906 1742 1742 70 243 99
447 99 712 0 422 -84 773 -277 1157 -379 757 -1141 1287 -1986 1382 -102 12
-331 20 -415 15z m326 -874 c592 -59 982 -344 1086 -791 26 -113 23 -348 -5
-461 -47 -188 -111 -316 -238 -473 -239 -298 -574 -434 -967 -396 -229 22
-337 84 -337 194 0 61 26 74 236 116 214 44 278 65 364 123 145 97 232 269
261 521 46 394 -95 622 -446 719 -71 19 -105 22 -300 22 -196 1 -232 -2 -325
-22 -146 -33 -230 -63 -415 -150 -253 -118 -263 -121 -331 -122 -74 0 -89 13
-81 69 7 53 84 170 166 252 191 191 576 360 908 398 101 12 307 12 424 1z
m-509 -647 c26 -31 30 -55 29 -210 -1 -225 -29 -409 -150 -992 -33 -157 -64
-320 -70 -361 -6 -41 -19 -259 -31 -485 -11 -225 -25 -433 -30 -461 -6 -30
-23 -65 -41 -87 -63 -76 -230 -127 -419 -127 -152 0 -174 31 -190 265 -28 394
71 965 275 1579 163 491 344 791 530 877 50 23 78 24 97 2z"/>
</g>
</svg>
